G04 #@! TF.FileFunction,Legend,Top*
%FSLAX46Y46*%
G04 Gerber Fmt 4.6, Leading zero omitted, Abs format (unit mm)*
G04 Created by KiCad (PCBNEW 4.0.7) date 05/01/18 22:04:37*
%MOMM*%
%LPD*%
G01*
G04 APERTURE LIST*
%ADD10C,0.100000*%
%ADD11C,0.120000*%
%ADD12C,0.150000*%
%ADD13R,2.000000X2.400000*%
%ADD14R,1.700000X1.900000*%
%ADD15R,1.950000X1.000000*%
G04 APERTURE END LIST*
D10*
D11*
X175795000Y-103225000D02*
X175795000Y-101225000D01*
X173755000Y-101225000D02*
X173755000Y-103225000D01*
X159350000Y-101675000D02*
X159350000Y-104875000D01*
X157850000Y-104875000D02*
X157850000Y-101675000D01*
X157850000Y-104875000D02*
X159350000Y-104875000D01*
X173895000Y-87725000D02*
X173895000Y-86525000D01*
X175655000Y-86525000D02*
X175655000Y-87725000D01*
X173895000Y-94400000D02*
X173895000Y-93200000D01*
X175655000Y-93200000D02*
X175655000Y-94400000D01*
X157720000Y-96175000D02*
X157720000Y-94975000D01*
X159480000Y-94975000D02*
X159480000Y-96175000D01*
D12*
X164525000Y-91025000D02*
X164525000Y-91075000D01*
X168675000Y-91025000D02*
X168675000Y-91170000D01*
X168675000Y-96175000D02*
X168675000Y-96030000D01*
X164525000Y-96175000D02*
X164525000Y-96030000D01*
X164525000Y-91025000D02*
X168675000Y-91025000D01*
X164525000Y-96175000D02*
X168675000Y-96175000D01*
X164525000Y-91075000D02*
X163125000Y-91075000D01*
X176998334Y-102592143D02*
X176950715Y-102639762D01*
X176807858Y-102687381D01*
X176712620Y-102687381D01*
X176569762Y-102639762D01*
X176474524Y-102544524D01*
X176426905Y-102449286D01*
X176379286Y-102258810D01*
X176379286Y-102115952D01*
X176426905Y-101925476D01*
X176474524Y-101830238D01*
X176569762Y-101735000D01*
X176712620Y-101687381D01*
X176807858Y-101687381D01*
X176950715Y-101735000D01*
X176998334Y-101782619D01*
X177950715Y-102687381D02*
X177379286Y-102687381D01*
X177665000Y-102687381D02*
X177665000Y-101687381D01*
X177569762Y-101830238D01*
X177474524Y-101925476D01*
X177379286Y-101973095D01*
X155979905Y-103068381D02*
X155979905Y-102068381D01*
X156218000Y-102068381D01*
X156360858Y-102116000D01*
X156456096Y-102211238D01*
X156503715Y-102306476D01*
X156551334Y-102496952D01*
X156551334Y-102639810D01*
X156503715Y-102830286D01*
X156456096Y-102925524D01*
X156360858Y-103020762D01*
X156218000Y-103068381D01*
X155979905Y-103068381D01*
X157503715Y-103068381D02*
X156932286Y-103068381D01*
X157218000Y-103068381D02*
X157218000Y-102068381D01*
X157122762Y-102211238D01*
X157027524Y-102306476D01*
X156932286Y-102354095D01*
X176744334Y-87320381D02*
X176411000Y-86844190D01*
X176172905Y-87320381D02*
X176172905Y-86320381D01*
X176553858Y-86320381D01*
X176649096Y-86368000D01*
X176696715Y-86415619D01*
X176744334Y-86510857D01*
X176744334Y-86653714D01*
X176696715Y-86748952D01*
X176649096Y-86796571D01*
X176553858Y-86844190D01*
X176172905Y-86844190D01*
X177696715Y-87320381D02*
X177125286Y-87320381D01*
X177411000Y-87320381D02*
X177411000Y-86320381D01*
X177315762Y-86463238D01*
X177220524Y-86558476D01*
X177125286Y-86606095D01*
X176998334Y-92654381D02*
X176665000Y-92178190D01*
X176426905Y-92654381D02*
X176426905Y-91654381D01*
X176807858Y-91654381D01*
X176903096Y-91702000D01*
X176950715Y-91749619D01*
X176998334Y-91844857D01*
X176998334Y-91987714D01*
X176950715Y-92082952D01*
X176903096Y-92130571D01*
X176807858Y-92178190D01*
X176426905Y-92178190D01*
X177379286Y-91749619D02*
X177426905Y-91702000D01*
X177522143Y-91654381D01*
X177760239Y-91654381D01*
X177855477Y-91702000D01*
X177903096Y-91749619D01*
X177950715Y-91844857D01*
X177950715Y-91940095D01*
X177903096Y-92082952D01*
X177331667Y-92654381D01*
X177950715Y-92654381D01*
X160488334Y-95956381D02*
X160155000Y-95480190D01*
X159916905Y-95956381D02*
X159916905Y-94956381D01*
X160297858Y-94956381D01*
X160393096Y-95004000D01*
X160440715Y-95051619D01*
X160488334Y-95146857D01*
X160488334Y-95289714D01*
X160440715Y-95384952D01*
X160393096Y-95432571D01*
X160297858Y-95480190D01*
X159916905Y-95480190D01*
X160821667Y-94956381D02*
X161440715Y-94956381D01*
X161107381Y-95337333D01*
X161250239Y-95337333D01*
X161345477Y-95384952D01*
X161393096Y-95432571D01*
X161440715Y-95527810D01*
X161440715Y-95765905D01*
X161393096Y-95861143D01*
X161345477Y-95908762D01*
X161250239Y-95956381D01*
X160964524Y-95956381D01*
X160869286Y-95908762D01*
X160821667Y-95861143D01*
X165838095Y-89552381D02*
X165838095Y-90361905D01*
X165885714Y-90457143D01*
X165933333Y-90504762D01*
X166028571Y-90552381D01*
X166219048Y-90552381D01*
X166314286Y-90504762D01*
X166361905Y-90457143D01*
X166409524Y-90361905D01*
X166409524Y-89552381D01*
X167409524Y-90552381D02*
X166838095Y-90552381D01*
X167123809Y-90552381D02*
X167123809Y-89552381D01*
X167028571Y-89695238D01*
X166933333Y-89790476D01*
X166838095Y-89838095D01*
%LPC*%
D13*
X174775000Y-100225000D03*
X174775000Y-104225000D03*
D14*
X158600000Y-104025000D03*
X158600000Y-101325000D03*
X174775000Y-85775000D03*
X174775000Y-88475000D03*
X174775000Y-92450000D03*
X174775000Y-95150000D03*
X158600000Y-94225000D03*
X158600000Y-96925000D03*
D15*
X163900000Y-91695000D03*
X163900000Y-92965000D03*
X163900000Y-94235000D03*
X163900000Y-95505000D03*
X169300000Y-95505000D03*
X169300000Y-94235000D03*
X169300000Y-92965000D03*
X169300000Y-91695000D03*
M02*
