G04 #@! TF.FileFunction,Copper,L2,Bot,Signal*
%FSLAX46Y46*%
G04 Gerber Fmt 4.6, Leading zero omitted, Abs format (unit mm)*
G04 Created by KiCad (PCBNEW 4.0.7) date 05/01/18 22:04:37*
%MOMM*%
%LPD*%
G01*
G04 APERTURE LIST*
%ADD10C,0.100000*%
%ADD11R,4.000000X4.000000*%
%ADD12R,5.000000X5.000000*%
%ADD13C,0.685800*%
%ADD14C,0.254000*%
G04 APERTURE END LIST*
D10*
D11*
X166500000Y-96100000D03*
D12*
X153800000Y-96100000D03*
X179300000Y-96100000D03*
D13*
X166497000Y-100203000D03*
X162052000Y-96266000D03*
X169291000Y-90043000D03*
D14*
X166500000Y-96100000D02*
X166500000Y-100200000D01*
X166500000Y-100200000D02*
X166497000Y-100203000D01*
G36*
X182165000Y-93066975D02*
X182159698Y-93061673D01*
X181926309Y-92965000D01*
X179585750Y-92965000D01*
X179427000Y-93123750D01*
X179427000Y-95973000D01*
X179447000Y-95973000D01*
X179447000Y-96227000D01*
X179427000Y-96227000D01*
X179427000Y-99076250D01*
X179585750Y-99235000D01*
X181926309Y-99235000D01*
X182159698Y-99138327D01*
X182165000Y-99133025D01*
X182165000Y-110915000D01*
X151085000Y-110915000D01*
X151085000Y-99198263D01*
X151173691Y-99235000D01*
X153514250Y-99235000D01*
X153673000Y-99076250D01*
X153673000Y-96227000D01*
X153927000Y-96227000D01*
X153927000Y-99076250D01*
X154085750Y-99235000D01*
X156426309Y-99235000D01*
X156659698Y-99138327D01*
X156838327Y-98959699D01*
X156935000Y-98726310D01*
X156935000Y-96385750D01*
X156776250Y-96227000D01*
X153927000Y-96227000D01*
X153673000Y-96227000D01*
X153653000Y-96227000D01*
X153653000Y-95973000D01*
X153673000Y-95973000D01*
X153673000Y-93123750D01*
X153927000Y-93123750D01*
X153927000Y-95973000D01*
X156776250Y-95973000D01*
X156935000Y-95814250D01*
X156935000Y-94100000D01*
X163852560Y-94100000D01*
X163852560Y-98100000D01*
X163896838Y-98335317D01*
X164035910Y-98551441D01*
X164248110Y-98696431D01*
X164500000Y-98747440D01*
X165738000Y-98747440D01*
X165738000Y-99578922D01*
X165668460Y-99648341D01*
X165519270Y-100007630D01*
X165518931Y-100396663D01*
X165667493Y-100756212D01*
X165942341Y-101031540D01*
X166301630Y-101180730D01*
X166690663Y-101181069D01*
X167050212Y-101032507D01*
X167325540Y-100757659D01*
X167474730Y-100398370D01*
X167475069Y-100009337D01*
X167326507Y-99649788D01*
X167262000Y-99585168D01*
X167262000Y-98747440D01*
X168500000Y-98747440D01*
X168735317Y-98703162D01*
X168951441Y-98564090D01*
X169096431Y-98351890D01*
X169147440Y-98100000D01*
X169147440Y-96385750D01*
X176165000Y-96385750D01*
X176165000Y-98726310D01*
X176261673Y-98959699D01*
X176440302Y-99138327D01*
X176673691Y-99235000D01*
X179014250Y-99235000D01*
X179173000Y-99076250D01*
X179173000Y-96227000D01*
X176323750Y-96227000D01*
X176165000Y-96385750D01*
X169147440Y-96385750D01*
X169147440Y-94100000D01*
X169103162Y-93864683D01*
X168964090Y-93648559D01*
X168751890Y-93503569D01*
X168604344Y-93473690D01*
X176165000Y-93473690D01*
X176165000Y-95814250D01*
X176323750Y-95973000D01*
X179173000Y-95973000D01*
X179173000Y-93123750D01*
X179014250Y-92965000D01*
X176673691Y-92965000D01*
X176440302Y-93061673D01*
X176261673Y-93240301D01*
X176165000Y-93473690D01*
X168604344Y-93473690D01*
X168500000Y-93452560D01*
X164500000Y-93452560D01*
X164264683Y-93496838D01*
X164048559Y-93635910D01*
X163903569Y-93848110D01*
X163852560Y-94100000D01*
X156935000Y-94100000D01*
X156935000Y-93473690D01*
X156838327Y-93240301D01*
X156659698Y-93061673D01*
X156426309Y-92965000D01*
X154085750Y-92965000D01*
X153927000Y-93123750D01*
X153673000Y-93123750D01*
X153514250Y-92965000D01*
X151173691Y-92965000D01*
X151085000Y-93001737D01*
X151085000Y-77785000D01*
X182165000Y-77785000D01*
X182165000Y-93066975D01*
X182165000Y-93066975D01*
G37*
X182165000Y-93066975D02*
X182159698Y-93061673D01*
X181926309Y-92965000D01*
X179585750Y-92965000D01*
X179427000Y-93123750D01*
X179427000Y-95973000D01*
X179447000Y-95973000D01*
X179447000Y-96227000D01*
X179427000Y-96227000D01*
X179427000Y-99076250D01*
X179585750Y-99235000D01*
X181926309Y-99235000D01*
X182159698Y-99138327D01*
X182165000Y-99133025D01*
X182165000Y-110915000D01*
X151085000Y-110915000D01*
X151085000Y-99198263D01*
X151173691Y-99235000D01*
X153514250Y-99235000D01*
X153673000Y-99076250D01*
X153673000Y-96227000D01*
X153927000Y-96227000D01*
X153927000Y-99076250D01*
X154085750Y-99235000D01*
X156426309Y-99235000D01*
X156659698Y-99138327D01*
X156838327Y-98959699D01*
X156935000Y-98726310D01*
X156935000Y-96385750D01*
X156776250Y-96227000D01*
X153927000Y-96227000D01*
X153673000Y-96227000D01*
X153653000Y-96227000D01*
X153653000Y-95973000D01*
X153673000Y-95973000D01*
X153673000Y-93123750D01*
X153927000Y-93123750D01*
X153927000Y-95973000D01*
X156776250Y-95973000D01*
X156935000Y-95814250D01*
X156935000Y-94100000D01*
X163852560Y-94100000D01*
X163852560Y-98100000D01*
X163896838Y-98335317D01*
X164035910Y-98551441D01*
X164248110Y-98696431D01*
X164500000Y-98747440D01*
X165738000Y-98747440D01*
X165738000Y-99578922D01*
X165668460Y-99648341D01*
X165519270Y-100007630D01*
X165518931Y-100396663D01*
X165667493Y-100756212D01*
X165942341Y-101031540D01*
X166301630Y-101180730D01*
X166690663Y-101181069D01*
X167050212Y-101032507D01*
X167325540Y-100757659D01*
X167474730Y-100398370D01*
X167475069Y-100009337D01*
X167326507Y-99649788D01*
X167262000Y-99585168D01*
X167262000Y-98747440D01*
X168500000Y-98747440D01*
X168735317Y-98703162D01*
X168951441Y-98564090D01*
X169096431Y-98351890D01*
X169147440Y-98100000D01*
X169147440Y-96385750D01*
X176165000Y-96385750D01*
X176165000Y-98726310D01*
X176261673Y-98959699D01*
X176440302Y-99138327D01*
X176673691Y-99235000D01*
X179014250Y-99235000D01*
X179173000Y-99076250D01*
X179173000Y-96227000D01*
X176323750Y-96227000D01*
X176165000Y-96385750D01*
X169147440Y-96385750D01*
X169147440Y-94100000D01*
X169103162Y-93864683D01*
X168964090Y-93648559D01*
X168751890Y-93503569D01*
X168604344Y-93473690D01*
X176165000Y-93473690D01*
X176165000Y-95814250D01*
X176323750Y-95973000D01*
X179173000Y-95973000D01*
X179173000Y-93123750D01*
X179014250Y-92965000D01*
X176673691Y-92965000D01*
X176440302Y-93061673D01*
X176261673Y-93240301D01*
X176165000Y-93473690D01*
X168604344Y-93473690D01*
X168500000Y-93452560D01*
X164500000Y-93452560D01*
X164264683Y-93496838D01*
X164048559Y-93635910D01*
X163903569Y-93848110D01*
X163852560Y-94100000D01*
X156935000Y-94100000D01*
X156935000Y-93473690D01*
X156838327Y-93240301D01*
X156659698Y-93061673D01*
X156426309Y-92965000D01*
X154085750Y-92965000D01*
X153927000Y-93123750D01*
X153673000Y-93123750D01*
X153514250Y-92965000D01*
X151173691Y-92965000D01*
X151085000Y-93001737D01*
X151085000Y-77785000D01*
X182165000Y-77785000D01*
X182165000Y-93066975D01*
M02*
