G04 #@! TF.FileFunction,Legend,Bot*
%FSLAX46Y46*%
G04 Gerber Fmt 4.6, Leading zero omitted, Abs format (unit mm)*
G04 Created by KiCad (PCBNEW 4.0.7) date 05/01/18 22:04:37*
%MOMM*%
%LPD*%
G01*
G04 APERTURE LIST*
%ADD10C,0.100000*%
%ADD11C,0.150000*%
%ADD12R,4.400000X4.400000*%
%ADD13R,5.400000X5.400000*%
G04 APERTURE END LIST*
D10*
D11*
X153800000Y-87210000D02*
X166500000Y-78320000D01*
X166500000Y-78320000D02*
X179200000Y-87210000D01*
X179200000Y-108800000D02*
X179200000Y-87210000D01*
X153800000Y-87210000D02*
X153800000Y-108800000D01*
X153800000Y-108800000D02*
X179200000Y-108800000D01*
X177445714Y-109998571D02*
X177302857Y-110046190D01*
X177255238Y-110093810D01*
X177207619Y-110189048D01*
X177207619Y-110331905D01*
X177255238Y-110427143D01*
X177302857Y-110474762D01*
X177398095Y-110522381D01*
X177779048Y-110522381D01*
X177779048Y-109522381D01*
X177445714Y-109522381D01*
X177350476Y-109570000D01*
X177302857Y-109617619D01*
X177255238Y-109712857D01*
X177255238Y-109808095D01*
X177302857Y-109903333D01*
X177350476Y-109950952D01*
X177445714Y-109998571D01*
X177779048Y-109998571D01*
X176921905Y-109522381D02*
X176350476Y-109522381D01*
X176636191Y-110522381D02*
X176636191Y-109522381D01*
X175493333Y-110522381D02*
X176064762Y-110522381D01*
X175779048Y-110522381D02*
X175779048Y-109522381D01*
X175874286Y-109665238D01*
X175969524Y-109760476D01*
X176064762Y-109808095D01*
%LPC*%
D12*
X166500000Y-96100000D03*
D13*
X153800000Y-96100000D03*
X179300000Y-96100000D03*
M02*
